<?xml version="1.0" encoding="utf-8"?>
<svg id="badge-appstore" viewBox="0 0 161 43" width="100%" height="100%">
          <path fill-rule="evenodd" d="M57.0404205,37.6725306 L55.3646393,32.810226 L48.3822174,32.810226 L46.6937409,37.6725306 L43.773819,37.6725306 L50.3880768,19.3531947 L53.4476471,19.3531947 L60.0619049,37.6725306 L57.0404205,37.6725306 Z M51.7718659,22.6793666 L49.1058502,30.4235072 L54.6410065,30.4235072 L51.9876862,22.6793666 L51.7718659,22.6793666 Z M69.2867543,23.6188197 C71.0471797,23.6188197 72.4436501,24.2599266 73.4762074,25.5421595 C74.5087646,26.8243925 75.0250355,28.5615171 75.0250355,30.7535853 C75.0250355,32.9456536 74.5108805,34.684894 73.482555,35.9713588 C72.4542296,37.2578235 71.0641068,37.9010463 69.3121449,37.9010463 C68.3303691,37.9010463 67.4670965,37.6958074 66.7223011,37.2853236 C65.9775057,36.8748398 65.4231493,36.3056723 65.0592152,35.5778041 L64.8433949,35.5778041 L64.8433949,42.153976 L62.1139027,42.153976 L62.1139027,23.8473353 L64.7418324,23.8473353 L64.7418324,26.1324916 L64.9449574,26.1324916 C65.359673,25.3453783 65.952115,24.7296618 66.7223011,24.2853236 C67.4924873,23.8409855 68.3472964,23.6188197 69.2867543,23.6188197 L69.2867543,23.6188197 Z M68.5123402,35.450851 C69.6718512,35.450851 70.579557,35.0340257 71.2354847,34.2003627 C71.8914125,33.3666996 72.2193715,32.2177854 72.2193715,30.7535853 C72.2193715,29.2893853 71.8914125,28.1425869 71.2354847,27.3131556 C70.579557,26.4837244 69.6760829,26.069015 68.5250355,26.069015 C67.3739881,26.069015 66.4641665,26.490072 65.7955433,27.3321986 C65.1269202,28.1743252 64.7926136,29.3190078 64.7926136,30.7662806 C64.7926136,32.2050899 65.1269202,33.3455408 65.7955433,34.1876674 C66.4641665,35.029794 67.3697564,35.450851 68.5123402,35.450851 L68.5123402,35.450851 Z M84.6561349,23.6188197 C86.4165603,23.6188197 87.8130307,24.2599266 88.845588,25.5421595 C89.8781452,26.8243925 90.3944161,28.5615171 90.3944161,30.7535853 C90.3944161,32.9456536 89.8802611,34.684894 88.8519356,35.9713588 C87.8236102,37.2578235 86.4334874,37.9010463 84.6815255,37.9010463 C83.6997497,37.9010463 82.8364771,37.6958074 82.0916817,37.2853236 C81.3468863,36.8748398 80.7925299,36.3056723 80.4285958,35.5778041 L80.2127755,35.5778041 L80.2127755,42.153976 L77.4832833,42.153976 L77.4832833,23.8473353 L80.111213,23.8473353 L80.111213,26.1324916 L80.314338,26.1324916 C80.7290536,25.3453783 81.3214956,24.7296618 82.0916817,24.2853236 C82.8618679,23.8409855 83.716677,23.6188197 84.6561349,23.6188197 L84.6561349,23.6188197 Z M83.8817208,35.450851 C85.0412318,35.450851 85.9489376,35.0340257 86.6048653,34.2003627 C87.2607931,33.3666996 87.588752,32.2177854 87.588752,30.7535853 C87.588752,29.2893853 87.2607931,28.1425869 86.6048653,27.3131556 C85.9489376,26.4837244 85.0454635,26.069015 83.8944161,26.069015 C82.7433687,26.069015 81.8335471,26.490072 81.1649239,27.3321986 C80.4963008,28.1743252 80.1619942,29.3190078 80.1619942,30.7662806 C80.1619942,32.2050899 80.4963008,33.3455408 81.1649239,34.1876674 C81.8335471,35.029794 82.739137,35.450851 83.8817208,35.450851 L83.8817208,35.450851 Z M98.5989976,32.7467494 L101.417357,32.7467494 C101.535847,33.6184985 101.990758,34.3103862 102.782103,34.822433 C103.573448,35.3344798 104.582715,35.5904994 105.809935,35.5904994 C106.952519,35.5904994 107.89831,35.3260164 108.647337,34.7970424 C109.396365,34.2680684 109.770873,33.5973394 109.770873,32.7848353 C109.770873,32.0908214 109.493694,31.521654 108.93933,31.0773158 C108.384965,30.6329776 107.498418,30.2669331 106.279662,29.9791713 L103.918334,29.4078822 C102.259471,29.0185573 101.040733,28.4134202 100.262084,27.5924525 C99.4834338,26.7714849 99.0941148,25.6881624 99.0941148,24.3424525 C99.0941148,22.7089808 99.7055996,21.3950291 100.928587,20.400558 C102.151575,19.4060869 103.761748,18.9088588 105.759154,18.9088588 C107.621142,18.9088588 109.165723,19.3997393 110.392943,20.381515 C111.620163,21.3632908 112.276081,22.6243459 112.360716,24.1647181 L109.593138,24.1647181 C109.457721,23.3183597 109.045127,22.6497466 108.355345,22.1588588 C107.665563,21.6679709 106.78748,21.4225306 105.721068,21.4225306 C104.595411,21.4225306 103.689821,21.6722026 103.004271,22.1715541 C102.318721,22.6709055 101.975951,23.3310552 101.975951,24.1520228 C101.975951,24.8037188 102.236202,25.3326849 102.756712,25.7389369 C103.277223,26.1451889 104.134148,26.4879589 105.327513,26.7672572 L107.346068,27.2623744 C109.224984,27.7024808 110.579137,28.3266607 111.408568,29.134933 C112.237999,29.9432053 112.652709,31.0371071 112.652709,32.4166713 C112.652709,34.1686332 112.017949,35.5566401 110.748412,36.5807338 C109.478874,37.6048274 107.760792,38.1168666 105.594115,38.1168666 C103.562855,38.1168666 101.914596,37.6302178 100.649291,36.6569056 C99.3839848,35.6835935 98.7005606,34.3802211 98.5989976,32.7467494 L98.5989976,32.7467494 Z M116.215449,20.4957728 L118.944941,20.4957728 L118.944941,23.9108119 L122.042597,23.9108119 L122.042597,26.2086635 L118.944941,26.2086635 L118.944941,33.3180385 C118.944941,34.0374431 119.101515,34.5642933 119.414667,34.8986049 C119.72782,35.2329164 120.222932,35.4000697 120.900019,35.4000697 C121.153926,35.4000697 121.492465,35.3789111 121.915644,35.3365931 L121.915644,37.6090541 C121.390902,37.7021535 120.904253,37.7487025 120.455683,37.7487025 C118.940701,37.7487025 117.855263,37.460945 117.199335,36.8854213 C116.543407,36.3098976 116.215449,35.3535269 116.215449,34.0162806 L116.215449,26.2086635 L113.942988,26.2086635 L113.942988,23.9108119 L116.215449,23.9108119 L116.215449,20.4957728 Z M130.023306,35.5143275 C131.199744,35.5143275 132.111681,35.0975023 132.759146,34.2638392 C133.40661,33.4301762 133.730337,32.2601033 133.730337,30.7535853 C133.730337,29.255531 133.40661,28.0896898 132.759146,27.2560267 C132.111681,26.4223637 131.199744,26.0055385 130.023306,26.0055385 C128.838404,26.0055385 127.924351,26.4202478 127.281118,27.2496791 C126.637886,28.0791103 126.316274,29.2470674 126.316274,30.7535853 C126.316274,32.2685669 126.637886,33.4407557 127.281118,34.2701869 C127.924351,35.0996181 128.838404,35.5143275 130.023306,35.5143275 L130.023306,35.5143275 Z M130.023306,37.9391322 C127.992046,37.9391322 126.396684,37.3001412 125.237173,36.02214 C124.077662,34.7441388 123.497915,32.9879715 123.497915,30.7535853 C123.497915,28.5276627 124.079778,26.7757271 125.243521,25.497726 C126.407263,24.2197248 128.000509,23.5807338 130.023306,23.5807338 C132.037639,23.5807338 133.626653,24.2197248 134.790396,25.497726 C135.954138,26.7757271 136.536001,28.5276627 136.536001,30.7535853 C136.536001,32.9879715 135.956254,34.7441388 134.796743,36.02214 C133.637232,37.3001412 132.046102,37.9391322 130.023306,37.9391322 L130.023306,37.9391322 Z M138.994249,37.6725306 L138.994249,23.8473353 L141.622178,23.8473353 L141.622178,25.9674525 L141.825303,25.9674525 C142.019966,25.2819022 142.464297,24.7190823 143.158311,24.278976 C143.852325,23.8388696 144.64789,23.6188197 145.54503,23.6188197 C146.052845,23.6188197 146.454859,23.6569053 146.751085,23.7330775 L146.751085,26.4244838 C146.437932,26.3144572 145.934356,26.2594447 145.240343,26.2594447 C144.207785,26.2594447 143.363555,26.5598974 142.707628,27.1608119 C142.0517,27.7617264 141.723741,28.5445961 141.723741,29.5094447 L141.723741,37.6725306 L138.994249,37.6725306 Z M153.881207,25.903976 C152.874041,25.903976 152.044622,26.229819 151.392926,26.881515 C150.74123,27.533211 150.377302,28.4007153 150.301129,29.4840541 L157.283551,29.4840541 C157.249697,28.3922517 156.92597,27.5226315 156.31236,26.8751674 C155.69875,26.2277032 154.888374,25.903976 153.881207,25.903976 L153.881207,25.903976 Z M157.270856,33.9401088 L159.898786,33.9401088 C159.585633,35.1842556 158.902209,36.1617849 157.848493,36.872726 C156.794776,37.583667 155.480825,37.9391322 153.906598,37.9391322 C151.926119,37.9391322 150.366727,37.3022571 149.228375,36.0284877 C148.090023,34.7547183 147.520856,33.013362 147.520856,30.8043666 C147.520856,28.5953712 148.096371,26.8392038 149.247418,25.5358119 C150.398466,24.23242 151.947278,23.5807338 153.893903,23.5807338 C155.815136,23.5807338 157.323748,24.1985661 158.419782,25.4342494 C159.515816,26.6699327 160.063825,28.3753192 160.063825,30.5504603 L160.063825,31.5026088 L150.301129,31.5026088 L150.301129,31.6549525 C150.343447,32.8737086 150.694681,33.8385427 151.35484,34.5494838 C152.015,35.2604248 152.890968,35.61589 153.98277,35.61589 C155.650096,35.61589 156.746114,35.0573019 157.270856,33.9401088 Z M48.8861237,6.31803845 L48.8861237,4.9781947 L50.2054596,4.9781947 C50.7523373,4.9781947 51.1989475,4.83236283 51.5453034,4.5406947 C51.8916593,4.24902658 52.0648346,3.87077515 52.0648346,3.40592908 C52.0648346,2.94564032 51.9007737,2.58106063 51.5726471,2.31217908 C51.2445205,2.04329753 50.7933531,1.90885877 50.2191315,1.90885877 C49.6449099,1.90885877 49.1812101,2.04557615 48.8280182,2.31901502 C48.4748263,2.59245388 48.2754468,2.97070531 48.2298737,3.45378064 L46.7806549,3.45378064 C46.8307854,2.56510432 47.1680216,1.86214911 47.7923737,1.34489392 C48.4167258,0.827638732 49.2415873,0.569015016 50.266983,0.569015016 C51.237691,0.569015016 52.0317912,0.815106305 52.6493073,1.30729627 C53.2668234,1.79948623 53.5755768,2.43750068 53.5755768,3.22135877 C53.5755768,3.7682365 53.4103766,4.25016527 53.0799713,4.66715955 C52.749566,5.08415382 52.317767,5.35417065 51.7845612,5.47721814 L51.7845612,5.59342908 C52.4362571,5.6617888 52.9648977,5.90788008 53.3704987,6.33171033 C53.7760997,6.75554057 53.9788971,7.30468873 53.9788971,7.97917127 C53.9788971,8.53060631 53.8171149,9.03076407 53.4935455,9.47965955 C53.1699762,9.92855502 52.7279233,10.279463 52.1673737,10.5323939 C51.606824,10.7853249 50.9824813,10.9117885 50.2943268,10.9117885 C49.2233579,10.9117885 48.349506,10.6451896 47.6727448,10.1119838 C46.9959836,9.57877797 46.6348218,8.87240483 46.5892487,7.99284314 L48.0589752,7.99284314 C48.1045484,8.46680384 48.3289927,8.84391596 48.7323151,9.1241908 C49.1356374,9.40446564 49.6563028,9.54460095 50.2943268,9.54460095 C50.9277935,9.54460095 51.4382051,9.39193321 51.8255768,9.08659314 C52.2129485,8.78125307 52.4066315,8.38477266 52.4066315,7.89714002 C52.4066315,7.40495005 52.2175058,7.01872345 51.8392487,6.73844861 C51.4609916,6.45817377 50.9300724,6.31803845 50.2464752,6.31803845 L48.8861237,6.31803845 Z M58.3801203,10.7955775 C57.65095,10.7955775 57.05509,10.5916408 56.5925226,10.1837611 C56.1299552,9.77588147 55.898675,9.23698712 55.898675,8.56706189 C55.898675,7.90169398 56.1379304,7.37874999 56.6164484,6.99821423 C57.0949664,6.61767848 57.7785533,6.40006998 58.6672297,6.3453822 L60.6838312,6.22917127 L60.6838312,5.58659314 C60.6838312,5.19010678 60.5539497,4.88591061 60.2941828,4.67399548 C60.0344159,4.46208036 59.6561644,4.35612439 59.1594172,4.35612439 C58.7492589,4.35612439 58.4086047,4.42790102 58.1374445,4.57145642 C57.8662843,4.71501183 57.689691,4.91894859 57.6076593,5.18327283 L56.1857843,5.18327283 C56.2587014,4.5452488 56.572012,4.03597655 57.1257258,3.6554408 C57.6794395,3.27490504 58.380116,3.08464002 59.2277765,3.08464002 C60.1574687,3.08464002 60.8763743,3.30452714 61.3845148,3.74430798 C61.8926554,4.18408883 62.1467218,4.79817774 62.1467218,5.58659314 L62.1467218,10.6725306 L60.7316828,10.6725306 L60.7316828,9.6266322 L60.6154718,9.6266322 C60.3921634,10.000332 60.0856886,10.2885778 59.6960383,10.4913783 C59.3063879,10.6941788 58.8677529,10.7955775 58.3801203,10.7955775 Z M69.7950153,4.46549939 L66.3633747,4.46549939 L66.3633747,10.6725306 L64.8936482,10.6725306 L64.8936482,3.2281947 L69.7950153,3.2281947 L69.7950153,4.46549939 Z M75.8573713,3.10514783 C76.8052927,3.10514783 77.5572383,3.45035922 78.1132307,4.14079236 C78.6692231,4.8312255 78.9472151,5.76660026 78.9472151,6.9469447 C78.9472151,8.12728915 78.6703624,9.06380322 78.1166487,9.75651502 C77.562935,10.4492268 76.8144073,10.7955775 75.8710432,10.7955775 C75.3423947,10.7955775 74.8775556,10.6850643 74.476512,10.4640345 C74.0754683,10.2430048 73.7769687,9.93653 73.5810041,9.54460095 L73.4647932,9.54460095 L73.4647932,13.0856166 L71.9950666,13.0856166 L71.9950666,3.2281947 L73.4101057,3.2281947 L73.4101057,4.45866345 L73.5194807,4.45866345 C73.7427891,4.03483321 74.0617963,3.70329356 74.476512,3.46403455 C74.8912276,3.22477554 75.3515094,3.10514783 75.8573713,3.10514783 Z M81.7625008,13.3795619 C81.4708326,13.3795619 81.2680352,13.3681688 81.1541023,13.3453822 L81.1541023,12.0807338 C81.2589206,12.098963 81.4184242,12.1080775 81.6326179,12.1080775 C81.9835312,12.1080775 82.2638018,12.0271864 82.4734383,11.8654017 C82.6830747,11.7036171 82.8516928,11.4358789 82.9792976,11.0621791 L83.0886726,10.6998744 L80.3953133,3.2281947 L81.9949226,3.2281947 L83.8611336,9.14128064 L83.9773445,9.14128064 L85.8367195,3.2281947 L87.3953133,3.2281947 L84.6199226,10.9801478 C84.3009106,11.8870534 83.9351916,12.5136747 83.5227547,12.8600306 C83.1103177,13.2063865 82.5235723,13.3795619 81.7625008,13.3795619 Z M91.9469271,10.8092494 C91.1038239,10.8092494 90.4008687,10.6155664 89.8380403,10.2281947 C89.275212,9.84082297 88.9596227,9.28483895 88.891263,8.56022595 L90.3541536,8.56022595 C90.431628,8.88379528 90.6093606,9.13102588 90.8873568,9.30192517 C91.1653529,9.47282446 91.5185395,9.55827283 91.9469271,9.55827283 C92.4345597,9.55827283 92.8139504,9.45915273 93.0851107,9.26090955 C93.3562709,9.06266637 93.4918489,8.79492816 93.4918489,8.45768689 C93.4918489,7.75130315 92.9791588,7.39811658 91.953763,7.39811658 L90.860013,7.39811658 L90.860013,6.25651502 L91.9332552,6.25651502 C92.7991449,6.25651502 93.2320833,5.93522917 93.2320833,5.29264783 C93.2320833,5.00553702 93.1227094,4.77311747 92.9039583,4.5953822 C92.6852072,4.41764694 92.3616427,4.32878064 91.9332552,4.32878064 C91.5185396,4.32878064 91.1778854,4.41195038 90.9112825,4.57829236 C90.6446796,4.74463434 90.488594,4.97363595 90.4430208,5.26530408 L89.0211458,5.26530408 C89.0986202,4.59537885 89.3948412,4.06445968 89.9098177,3.67253064 C90.4247942,3.2806016 91.096988,3.08464002 91.9264193,3.08464002 C92.8014236,3.08464002 93.4781747,3.26806917 93.9566927,3.63493298 C94.4352107,4.0017968 94.6744661,4.50423318 94.6744661,5.1422572 C94.6744661,5.51595699 94.5662315,5.84180008 94.3497591,6.11979627 C94.1332867,6.39779245 93.8495981,6.58008229 93.4986849,6.66667127 L93.4986849,6.7828822 C93.9772029,6.89225775 94.3406433,7.09391589 94.5890169,7.38786267 C94.8373905,7.68180945 94.9615755,8.03841396 94.9615755,8.45768689 C94.9615755,9.16862795 94.6881407,9.73828371 94.141263,10.1666713 C93.5943853,10.5950588 92.8629473,10.8092494 91.9469271,10.8092494 Z M98.7749081,10.6725306 L97.3188534,10.6725306 L97.3188534,3.2281947 L98.7749081,3.2281947 L98.7749081,8.34831189 L98.891119,8.34831189 L102.384283,3.2281947 L103.840338,3.2281947 L103.840338,10.6725306 L102.384283,10.6725306 L102.384283,5.5250697 L102.268072,5.5250697 L98.7749081,10.6725306 Z M112.09703,3.2281947 L112.09703,4.46549939 L109.752303,4.46549939 L109.752303,10.6725306 L108.282577,10.6725306 L108.282577,4.46549939 L105.93785,4.46549939 L105.93785,3.2281947 L112.09703,3.2281947 Z M114.194542,10.6725306 L114.194542,3.2281947 L115.664268,3.2281947 L115.664268,5.51139783 L117.079308,5.51139783 C117.94064,5.51139783 118.626506,5.74381738 119.136925,6.20866345 C119.647344,6.67350953 119.90255,7.30013087 119.90255,8.08854627 C119.90255,8.87696167 119.647344,9.50472232 119.136925,9.97184705 C118.626506,10.4389718 117.94064,10.6725306 117.079308,10.6725306 L114.194542,10.6725306 Z M126.414957,10.6725306 L126.414957,3.2281947 L129.798746,3.2281947 C130.523359,3.2281947 131.089597,3.39795212 131.497477,3.73747205 C131.905356,4.07699197 132.109293,4.53841314 132.109293,5.12174939 C132.109293,5.50000649 131.989665,5.83952132 131.750406,6.14030408 C131.511147,6.44108683 131.211508,6.6256553 130.85148,6.69401502 L130.85148,6.81022595 C131.329998,6.86491373 131.715086,7.05062151 132.006754,7.36735486 C132.298422,7.68408821 132.444254,8.07031482 132.444254,8.52604627 C132.444254,9.18229955 132.211834,9.70410422 131.746988,10.091476 C131.282142,10.4788477 130.644128,10.6725306 129.832926,10.6725306 L126.414957,10.6725306 Z M26.6095941,20.9585023 C26.5650813,15.9795642 30.6602593,13.5572946 30.8475201,13.4445232 C28.5282495,10.0412962 24.9334568,9.57630691 23.6702142,9.53923136 C20.6510181,9.2194547 17.7223826,11.3574784 16.1843884,11.3574784 C14.6156958,11.3574784 12.2473076,9.57012765 9.69472857,9.62265136 C6.40999061,9.67363025 3.3370722,11.5876558 1.65172534,14.5598794 C-1.82641309,20.6201879 0.767608949,29.5260452 4.09992956,34.4246529 C5.76685733,36.8252951 7.71467625,39.5024591 10.2641855,39.4082254 C12.7584374,39.3062676 13.6901365,37.8077973 16.700123,37.8077973 C19.6824809,37.8077973 20.5573877,39.4082254 23.1575494,39.3464328 C25.8344574,39.3062676 27.5198042,36.9380666 29.1284049,34.515797 C31.0547349,31.7691163 31.8283367,29.0579663 31.8590352,28.918933 C31.7976382,28.8988504 26.6617816,26.9261219 26.6095941,20.9585023 Z M21.6978364,6.3167477 C23.0393603,4.62826513 23.957245,2.33112553 23.7024476,0 C21.7607683,0.0865096285 19.3325181,1.35171295 17.9342021,3.00311996 C16.6970531,4.4583355 15.5919077,6.84352954 15.8774036,9.08660062 C18.058531,9.25035099 20.2979855,7.97896842 21.6978364,6.3167477 Z M75.4403791,9.47624158 C76.0647312,9.47624158 76.5534959,9.25179721 76.9066877,8.80290173 C77.2598796,8.35400626 77.4364729,7.7353601 77.4364729,6.9469447 C77.4364729,6.1585293 77.2598796,5.54102246 76.9066877,5.09440564 C76.5534959,4.64778882 76.0670098,4.42448377 75.4472151,4.42448377 C74.8274203,4.42448377 74.3375164,4.65120676 73.9774885,5.10465955 C73.6174607,5.55811234 73.4374495,6.17447987 73.4374495,6.95378064 C73.4374495,7.7285241 73.6174607,8.34261301 73.9774885,8.7960658 C74.3375164,9.24951859 74.8251417,9.47624158 75.4403791,9.47624158 L75.4403791,9.47624158 Z M116.969933,6.74186658 L115.664268,6.74186658 L115.664268,9.43522595 L116.969933,9.43522595 C117.411992,9.43522595 117.766318,9.31218031 118.032921,9.06608533 C118.299524,8.81999035 118.432823,8.49414725 118.432823,8.08854627 C118.432823,7.68294528 118.299524,7.35710218 118.032921,7.1110072 C117.766318,6.86491222 117.411992,6.74186658 116.969933,6.74186658 L116.969933,6.74186658 Z M58.7560968,9.55827283 C59.3075319,9.55827283 59.7666744,9.40332646 60.1335383,9.09342908 C60.5004021,8.7835317 60.6838312,8.39616578 60.6838312,7.9313197 L60.6838312,7.30924939 L58.8654718,7.42546033 C58.3550526,7.45736153 57.9790798,7.56217819 57.7375422,7.73991345 C57.4960045,7.91764872 57.3752375,8.17057588 57.3752375,8.49870252 C57.3752375,8.82682916 57.5028404,9.08545287 57.75805,9.27458142 C58.0132596,9.46370997 58.3459385,9.55827283 58.7560968,9.55827283 L58.7560968,9.55827283 Z M129.456949,7.36393689 L127.871012,7.36393689 L127.871012,9.54460095 L129.64152,9.54460095 C130.074464,9.54460095 130.404865,9.45117741 130.63273,9.26432752 C130.860596,9.07747762 130.974527,8.8086001 130.974527,8.45768689 C130.974527,7.72851658 130.468673,7.36393689 129.456949,7.36393689 L129.456949,7.36393689 Z M129.518473,4.35612439 L127.871012,4.35612439 L127.871012,6.28385877 L129.35441,6.28385877 C130.229415,6.28385877 130.66691,5.96029429 130.66691,5.31315564 C130.66691,5.01237289 130.570069,4.77767471 130.376383,4.60905408 C130.182697,4.44043344 129.89673,4.35612439 129.518473,4.35612439 L129.518473,4.35612439 Z"></path>
        </svg>
